<svg width="438" height="161" viewBox="0 0 438 161" fill="none" xmlns="http://www.w3.org/2000/svg">
<path d="M185.27 74.9932V0.359375H203.58V74.9932C203.58 82.0732 202.066 88.1035 199.039 93.084C196.012 98.0645 191.886 101.873 186.661 104.51C181.437 107.146 175.504 108.465 168.863 108.465C162.076 108.465 156.046 107.317 150.772 105.022C145.548 102.728 141.446 99.2119 138.468 94.4756C135.489 89.7393 134 83.7334 134 76.458H152.457C152.457 80.6572 153.116 84.0508 154.435 86.6387C155.802 89.1777 157.706 91.0332 160.147 92.2051C162.638 93.3281 165.543 93.8896 168.863 93.8896C172.037 93.8896 174.845 93.1816 177.286 91.7656C179.776 90.3008 181.729 88.1768 183.146 85.3936C184.562 82.5615 185.27 79.0947 185.27 74.9932Z" fill="black"/>
<path d="M203.325 65.7187L195.058 96.5L191.558 99.5V54.9766C191.558 54.9766 197.942 52.8989 201.058 55.904C204.083 58.8223 203.325 65.7187 203.325 65.7187ZM201.421 79.4395L197.417 79.3906C197.417 75.7448 197.873 72.3756 198.784 69.2832C199.696 66.1908 201.03 63.5052 202.788 61.2266C204.546 58.9154 206.727 57.1413 209.331 55.9043C211.968 54.6348 215.011 54 218.462 54C220.871 54 223.068 54.3581 225.054 55.0742C227.072 55.7578 228.813 56.8483 230.278 58.3457C231.776 59.8431 232.915 61.7637 233.696 64.1074C234.51 66.4512 234.917 69.2832 234.917 72.6035V107.809H223.149V73.6289C223.149 71.0573 222.759 69.0391 221.978 67.5742C221.229 66.1094 220.138 65.0677 218.706 64.4492C217.306 63.7982 215.63 63.4727 213.677 63.4727C211.463 63.4727 209.575 63.8958 208.013 64.7422C206.483 65.5885 205.229 66.7441 204.253 68.209C203.276 69.6738 202.56 71.3665 202.104 73.2871C201.649 75.2077 201.421 77.2585 201.421 79.4395ZM234.185 76.3145L228.667 77.5352C228.667 74.3451 229.106 71.334 229.985 68.502C230.897 65.6374 232.215 63.1309 233.94 60.9824C235.698 58.8014 237.863 57.0924 240.435 55.8555C243.006 54.6185 245.952 54 249.272 54C251.974 54 254.383 54.3743 256.499 55.123C258.647 55.8392 260.47 56.9785 261.968 58.541C263.465 60.1035 264.604 62.138 265.386 64.6445C266.167 67.1185 266.558 70.1133 266.558 73.6289V107.809H254.741V73.5801C254.741 70.9108 254.351 68.8437 253.569 67.3789C252.821 65.9141 251.746 64.9049 250.347 64.3516C248.947 63.7656 247.271 63.4727 245.317 63.4727C243.494 63.4727 241.883 63.8145 240.483 64.498C239.116 65.1491 237.961 66.0768 237.017 67.2812C236.073 68.4531 235.356 69.804 234.868 71.334C234.412 72.8639 234.185 74.5241 234.185 76.3145Z" fill="black"/>
<path d="M235.222 123.094C235.222 122.885 235.248 122.469 235.3 121.844C235.378 121.219 235.469 120.516 235.573 119.734C235.703 118.927 235.86 118.094 236.042 117.234C236.224 116.349 236.446 115.542 236.706 114.812C236.993 114.083 237.305 113.484 237.644 113.016C237.982 112.547 238.373 112.312 238.815 112.312C239.362 112.312 239.792 112.521 240.104 112.938C240.417 113.354 240.651 113.849 240.808 114.422C240.99 114.969 241.107 115.542 241.159 116.141C241.237 116.714 241.276 117.169 241.276 117.508C240.729 117.508 240.378 117.417 240.222 117.234C240.065 117.052 239.948 116.831 239.87 116.57C239.818 116.31 239.753 116.049 239.675 115.789C239.597 115.503 239.375 115.255 239.011 115.047C238.412 115.411 237.956 115.932 237.644 116.609C237.331 117.26 237.084 117.977 236.901 118.758C236.745 119.539 236.654 120.307 236.628 121.062C236.602 121.818 236.589 122.495 236.589 123.094C236.589 123.823 236.719 124.435 236.979 124.93C237.266 125.424 237.826 125.672 238.659 125.672C239.31 125.672 239.935 125.542 240.534 125.281C241.133 125.021 241.706 124.695 242.253 124.305C242.8 123.888 243.308 123.445 243.776 122.977C244.271 122.482 244.727 122.013 245.144 121.57H245.886C245.886 121.57 245.873 121.622 245.847 121.727C245.847 121.805 245.834 121.87 245.808 121.922C245.443 122.677 244.987 123.367 244.44 123.992C243.894 124.617 243.295 125.151 242.644 125.594C241.993 126.036 241.276 126.388 240.495 126.648C239.74 126.909 238.946 127.039 238.112 127.039C237.513 127.039 237.019 126.948 236.628 126.766C236.263 126.557 235.977 126.284 235.769 125.945C235.56 125.581 235.417 125.164 235.339 124.695C235.261 124.201 235.222 123.667 235.222 123.094ZM245.634 125.555C245.634 124.148 245.738 122.768 245.947 121.414C246.155 120.034 246.389 118.667 246.65 117.312C246.936 115.932 247.184 114.565 247.392 113.211C247.6 111.857 247.704 110.49 247.704 109.109C247.704 109.031 247.704 108.901 247.704 108.719C247.704 108.536 247.691 108.354 247.665 108.172C247.665 107.964 247.665 107.768 247.665 107.586C247.665 107.404 247.665 107.286 247.665 107.234C247.691 106.948 247.639 106.753 247.509 106.648C247.379 106.544 247.21 106.492 247.001 106.492C246.975 106.492 246.923 106.505 246.845 106.531C246.767 106.557 246.702 106.57 246.65 106.57C246.546 106.701 246.454 106.792 246.376 106.844C246.298 106.896 246.22 106.948 246.142 107C246.064 107.052 245.973 107.104 245.869 107.156C245.764 107.208 245.647 107.286 245.517 107.391C245.335 107.547 245.113 107.664 244.853 107.742C244.619 107.794 244.384 107.82 244.15 107.82V106.727L246.65 104.5C246.806 104.344 246.975 104.253 247.158 104.227C247.34 104.174 247.522 104.148 247.704 104.148C248.147 104.148 248.486 104.344 248.72 104.734C248.954 105.099 249.124 105.542 249.228 106.062C249.358 106.557 249.423 107.065 249.423 107.586C249.423 108.081 249.423 108.445 249.423 108.68C249.423 108.784 249.423 108.927 249.423 109.109C249.423 109.292 249.423 109.474 249.423 109.656C249.423 109.812 249.423 109.956 249.423 110.086C249.423 110.216 249.423 110.294 249.423 110.32C249.397 110.424 249.345 110.685 249.267 111.102C249.215 111.492 249.137 111.961 249.033 112.508C248.954 113.029 248.863 113.602 248.759 114.227C248.655 114.826 248.551 115.398 248.447 115.945C248.343 116.466 248.251 116.935 248.173 117.352C248.121 117.742 248.082 118.016 248.056 118.172V118.289V118.484C248.108 118.458 248.173 118.406 248.251 118.328C248.329 118.25 248.369 118.198 248.369 118.172C248.421 118.094 248.525 117.924 248.681 117.664C248.863 117.378 249.046 117.078 249.228 116.766C249.41 116.453 249.579 116.167 249.736 115.906C249.918 115.646 250.035 115.49 250.087 115.438C250.191 115.307 250.361 115.112 250.595 114.852C250.856 114.591 251.129 114.318 251.415 114.031C251.728 113.745 252.001 113.484 252.236 113.25C252.496 112.99 252.691 112.807 252.822 112.703C252.848 112.703 252.952 112.703 253.134 112.703C253.316 112.677 253.434 112.664 253.486 112.664C254.085 112.664 254.488 112.951 254.697 113.523C254.931 114.07 255.061 114.773 255.087 115.633C255.139 116.466 255.126 117.378 255.048 118.367C254.97 119.331 254.944 120.229 254.97 121.062C254.996 121.896 255.113 122.599 255.322 123.172C255.53 123.719 255.947 123.992 256.572 123.992C256.858 123.992 257.106 123.914 257.314 123.758C257.522 123.602 257.731 123.432 257.939 123.25C258.147 123.068 258.356 122.898 258.564 122.742C258.798 122.586 259.072 122.508 259.384 122.508C259.384 122.898 259.28 123.289 259.072 123.68C258.863 124.07 258.603 124.422 258.29 124.734C257.978 125.047 257.613 125.294 257.197 125.477C256.806 125.633 256.428 125.711 256.064 125.711C255.309 125.711 254.749 125.477 254.384 125.008C254.046 124.539 253.811 123.979 253.681 123.328C253.577 122.677 253.525 122 253.525 121.297C253.525 120.594 253.512 119.995 253.486 119.5C253.46 119.188 253.434 118.784 253.408 118.289C253.382 117.768 253.343 117.273 253.29 116.805C253.264 116.336 253.238 115.932 253.212 115.594C253.186 115.229 253.173 115.047 253.173 115.047L252.822 114.734C252.119 115.359 251.494 116.023 250.947 116.727C250.4 117.404 249.931 118.133 249.54 118.914C249.15 119.669 248.798 120.477 248.486 121.336C248.199 122.169 247.926 123.042 247.665 123.953C247.587 124.266 247.535 124.565 247.509 124.852C247.509 125.112 247.483 125.372 247.431 125.633C247.379 125.867 247.301 126.102 247.197 126.336C247.093 126.544 246.91 126.766 246.65 127C246.155 126.766 245.856 126.557 245.751 126.375C245.673 126.193 245.634 125.919 245.634 125.555ZM267.14 122.234C266.75 122.703 266.294 123.198 265.773 123.719C265.278 124.24 264.732 124.721 264.133 125.164C263.56 125.607 262.948 125.984 262.297 126.297C261.672 126.583 261.021 126.727 260.344 126.727C258.963 126.727 258.273 126.062 258.273 124.734C258.273 124.188 258.495 123.471 258.937 122.586C259.406 121.674 260.005 120.724 260.734 119.734C261.463 118.745 262.271 117.794 263.156 116.883C264.041 115.945 264.927 115.177 265.812 114.578C266.698 113.953 267.505 113.562 268.234 113.406C268.989 113.25 269.601 113.471 270.07 114.07C270.07 114.773 270.018 115.477 269.914 116.18C269.81 116.883 269.706 117.586 269.601 118.289C269.497 118.966 269.393 119.643 269.289 120.32C269.185 120.997 269.133 121.688 269.133 122.391C269.133 122.547 269.146 122.794 269.172 123.133C269.224 123.445 269.289 123.771 269.367 124.109C269.471 124.422 269.601 124.708 269.758 124.969C269.914 125.203 270.122 125.32 270.383 125.32C271.008 125.32 271.515 125.242 271.906 125.086C272.323 124.93 272.674 124.747 272.961 124.539C273.273 124.305 273.534 124.044 273.742 123.758C273.976 123.471 274.211 123.185 274.445 122.898C274.706 122.612 274.992 122.339 275.304 122.078C275.617 121.818 276.021 121.609 276.515 121.453C276.515 121.453 276.515 121.492 276.515 121.57C276.515 121.648 276.515 121.714 276.515 121.766C276.515 122.417 276.32 123.068 275.929 123.719C275.539 124.344 275.044 124.904 274.445 125.398C273.846 125.893 273.169 126.297 272.414 126.609C271.685 126.896 270.969 127.039 270.265 127.039C269.666 127.039 269.185 126.87 268.82 126.531C268.456 126.193 268.156 125.789 267.922 125.32C267.713 124.852 267.557 124.344 267.453 123.797C267.349 123.224 267.245 122.703 267.14 122.234ZM267.844 117.117C268.104 116.258 268.195 115.672 268.117 115.359C268.065 115.047 267.883 114.93 267.57 115.008C267.258 115.06 266.854 115.281 266.359 115.672C265.864 116.036 265.331 116.492 264.758 117.039C264.185 117.56 263.612 118.146 263.039 118.797C262.466 119.448 261.932 120.073 261.437 120.672C260.943 121.245 260.539 121.766 260.226 122.234C259.914 122.703 259.719 123.042 259.64 123.25C259.484 123.849 259.458 124.305 259.562 124.617C259.693 124.93 259.875 125.151 260.109 125.281C260.37 125.385 260.643 125.398 260.929 125.32C261.242 125.242 261.502 125.125 261.711 124.969C262.153 124.578 262.713 124.057 263.39 123.406C264.068 122.729 264.719 122.013 265.344 121.258C265.995 120.503 266.554 119.76 267.023 119.031C267.492 118.276 267.765 117.638 267.844 117.117ZM280.365 125.672C280.365 125.594 280.365 125.464 280.365 125.281C280.365 125.073 280.352 124.865 280.326 124.656C280.326 124.422 280.326 124.214 280.326 124.031C280.326 123.823 280.326 123.667 280.326 123.562C280.326 122.807 280.391 122.078 280.522 121.375C280.652 120.646 280.795 119.93 280.951 119.227C281.134 118.497 281.29 117.768 281.42 117.039C281.55 116.31 281.615 115.568 281.615 114.812C281.303 114.812 280.925 114.956 280.483 115.242C280.066 115.529 279.623 115.854 279.154 116.219C278.686 116.583 278.243 116.961 277.826 117.352C277.436 117.716 277.136 117.99 276.928 118.172C276.928 118.172 276.889 118.172 276.811 118.172C276.733 118.172 276.668 118.172 276.615 118.172C276.121 118.172 275.873 117.938 275.873 117.469C275.873 117.156 276.029 116.831 276.342 116.492C276.681 116.128 277.084 115.776 277.553 115.438C278.048 115.073 278.569 114.734 279.115 114.422C279.688 114.109 280.209 113.823 280.678 113.562C281.173 113.276 281.576 113.029 281.889 112.82C282.227 112.612 282.397 112.443 282.397 112.312C282.631 111.219 282.735 110.307 282.709 109.578C282.683 108.849 282.579 108.263 282.397 107.82C282.24 107.378 282.006 107.078 281.694 106.922C281.407 106.74 281.095 106.661 280.756 106.688C280.444 106.714 280.118 106.831 279.779 107.039C279.441 107.247 279.154 107.508 278.92 107.82C278.738 107.612 278.621 107.443 278.569 107.312C278.516 107.156 278.49 106.987 278.49 106.805C279.089 106.206 279.675 105.828 280.248 105.672C280.847 105.516 281.407 105.529 281.928 105.711C282.449 105.867 282.918 106.154 283.334 106.57C283.751 106.987 284.063 107.482 284.272 108.055C284.506 108.602 284.61 109.201 284.584 109.852C284.584 110.477 284.428 111.089 284.115 111.688C284.168 111.661 284.272 111.609 284.428 111.531C284.584 111.453 284.753 111.388 284.936 111.336C285.118 111.258 285.287 111.193 285.444 111.141C285.626 111.062 285.756 111.01 285.834 110.984H285.951H286.147C286.173 110.984 286.199 111.076 286.225 111.258C286.277 111.414 286.329 111.609 286.381 111.844C286.459 112.052 286.524 112.247 286.576 112.43C286.628 112.586 286.654 112.677 286.654 112.703L283.764 114.07C283.738 114.096 283.647 114.383 283.49 114.93C283.36 115.451 283.204 116.076 283.022 116.805C282.839 117.508 282.657 118.25 282.475 119.031C282.293 119.786 282.162 120.398 282.084 120.867C282.032 120.971 281.98 121.18 281.928 121.492C281.902 121.779 281.876 122.091 281.85 122.43C281.824 122.742 281.798 123.055 281.772 123.367C281.746 123.654 281.733 123.849 281.733 123.953C281.733 124.109 281.746 124.292 281.772 124.5C281.798 124.708 281.837 124.904 281.889 125.086C281.967 125.242 282.071 125.385 282.201 125.516C282.332 125.62 282.501 125.672 282.709 125.672C283.464 125.672 284.128 125.529 284.701 125.242C285.3 124.93 285.821 124.591 286.264 124.227C286.707 123.862 287.097 123.523 287.436 123.211C287.8 122.898 288.126 122.742 288.412 122.742C288.464 122.742 288.529 122.755 288.608 122.781C288.712 122.781 288.764 122.794 288.764 122.82C288.686 123.576 288.464 124.227 288.1 124.773C287.761 125.294 287.332 125.724 286.811 126.062C286.316 126.401 285.73 126.648 285.053 126.805C284.376 126.961 283.647 127.039 282.865 127.039C282.631 127.039 282.371 127.026 282.084 127C281.798 126.974 281.537 126.909 281.303 126.805C281.069 126.701 280.86 126.557 280.678 126.375C280.522 126.193 280.418 125.958 280.365 125.672Z" fill="#2A88B9"/>
<path d="M7.16406 154.835H8.47656C8.4082 155.464 8.22819 156.027 7.93652 156.523C7.64486 157.02 7.23242 157.414 6.69922 157.706C6.16602 157.993 5.50065 158.137 4.70312 158.137C4.11979 158.137 3.58887 158.027 3.11035 157.809C2.63639 157.59 2.22852 157.28 1.88672 156.879C1.54492 156.473 1.2806 155.988 1.09375 155.423C0.911458 154.853 0.820312 154.22 0.820312 153.522V152.531C0.820312 151.834 0.911458 151.203 1.09375 150.638C1.2806 150.068 1.5472 149.58 1.89355 149.175C2.24447 148.769 2.66602 148.457 3.1582 148.238C3.65039 148.02 4.2041 147.91 4.81934 147.91C5.57129 147.91 6.20703 148.051 6.72656 148.334C7.24609 148.617 7.64941 149.008 7.93652 149.51C8.22819 150.007 8.4082 150.583 8.47656 151.239H7.16406C7.10026 150.774 6.98177 150.376 6.80859 150.043C6.63542 149.706 6.38932 149.446 6.07031 149.264C5.7513 149.081 5.33431 148.99 4.81934 148.99C4.37728 148.99 3.98763 149.075 3.65039 149.243C3.31771 149.412 3.03743 149.651 2.80957 149.961C2.58626 150.271 2.41764 150.642 2.30371 151.075C2.18978 151.508 2.13281 151.989 2.13281 152.518V153.522C2.13281 154.01 2.18294 154.468 2.2832 154.896C2.38802 155.325 2.54525 155.701 2.75488 156.024C2.96452 156.348 3.23112 156.603 3.55469 156.79C3.87826 156.972 4.26107 157.063 4.70312 157.063C5.26367 157.063 5.71029 156.975 6.04297 156.797C6.37565 156.619 6.6263 156.364 6.79492 156.031C6.9681 155.699 7.09115 155.3 7.16406 154.835ZM14.4443 156.735V152.928C14.4443 152.636 14.3851 152.383 14.2666 152.169C14.1527 151.95 13.9795 151.782 13.7471 151.663C13.5146 151.545 13.2275 151.485 12.8857 151.485C12.5667 151.485 12.2865 151.54 12.0449 151.649C11.8079 151.759 11.6211 151.902 11.4844 152.08C11.3522 152.258 11.2861 152.449 11.2861 152.654H10.0215C10.0215 152.39 10.0898 152.128 10.2266 151.868C10.3633 151.608 10.5592 151.374 10.8145 151.164C11.0742 150.95 11.3841 150.781 11.7441 150.658C12.1087 150.531 12.5143 150.467 12.9609 150.467C13.4987 150.467 13.9727 150.558 14.3828 150.74C14.7975 150.923 15.1211 151.198 15.3535 151.567C15.5905 151.932 15.709 152.39 15.709 152.941V156.387C15.709 156.633 15.7295 156.895 15.7705 157.173C15.8161 157.451 15.8822 157.69 15.9688 157.891V158H14.6494C14.5856 157.854 14.5355 157.66 14.499 157.419C14.4626 157.173 14.4443 156.945 14.4443 156.735ZM14.6631 153.516L14.6768 154.404H13.3984C13.0384 154.404 12.7171 154.434 12.4346 154.493C12.152 154.548 11.915 154.632 11.7236 154.746C11.5322 154.86 11.3864 155.004 11.2861 155.177C11.1859 155.345 11.1357 155.544 11.1357 155.771C11.1357 156.004 11.1882 156.216 11.293 156.407C11.3978 156.599 11.555 156.751 11.7646 156.865C11.9788 156.975 12.2409 157.029 12.5508 157.029C12.9382 157.029 13.2799 156.947 13.5762 156.783C13.8724 156.619 14.1071 156.419 14.2803 156.182C14.458 155.945 14.5537 155.715 14.5674 155.491L15.1074 156.1C15.0755 156.291 14.9889 156.503 14.8477 156.735C14.7064 156.968 14.5173 157.191 14.2803 157.405C14.0479 157.615 13.7699 157.79 13.4463 157.932C13.1273 158.068 12.7673 158.137 12.3662 158.137C11.8649 158.137 11.4251 158.039 11.0469 157.843C10.6732 157.647 10.3815 157.385 10.1719 157.057C9.9668 156.724 9.86426 156.353 9.86426 155.942C9.86426 155.546 9.94173 155.197 10.0967 154.896C10.2516 154.591 10.4749 154.338 10.7666 154.138C11.0583 153.933 11.4092 153.778 11.8193 153.673C12.2295 153.568 12.6875 153.516 13.1934 153.516H14.6631ZM21.9502 156.318L24.4658 150.604H25.6826L22.3877 158H21.5127L18.2314 150.604H19.4482L21.9502 156.318ZM19.0791 150.604V158H17.8145V150.604H19.0791ZM24.7803 158V150.604H26.0518V158H24.7803ZM29.1279 153.146H31.3496C31.9466 153.146 32.4502 153.251 32.8604 153.461C33.2705 153.666 33.5804 153.951 33.79 154.315C34.0042 154.675 34.1113 155.086 34.1113 155.546C34.1113 155.888 34.0521 156.209 33.9336 156.51C33.8151 156.806 33.6374 157.066 33.4004 157.289C33.168 157.512 32.8786 157.688 32.5322 157.815C32.1904 157.938 31.7962 158 31.3496 158H28.2051V150.604H29.4697V156.961H31.3496C31.7142 156.961 32.0059 156.895 32.2246 156.763C32.4434 156.631 32.6006 156.46 32.6963 156.25C32.792 156.04 32.8398 155.822 32.8398 155.594C32.8398 155.37 32.792 155.152 32.6963 154.938C32.6006 154.723 32.4434 154.546 32.2246 154.404C32.0059 154.258 31.7142 154.186 31.3496 154.186H29.1279V153.146ZM36.7432 150.604V158H35.4785V150.604H36.7432ZM42.0273 158.137C41.5124 158.137 41.0452 158.05 40.626 157.877C40.2113 157.699 39.8535 157.451 39.5527 157.132C39.2565 156.813 39.0286 156.435 38.8691 155.997C38.7096 155.56 38.6299 155.081 38.6299 154.562V154.274C38.6299 153.673 38.7188 153.137 38.8965 152.668C39.0742 152.194 39.3158 151.793 39.6211 151.465C39.9264 151.137 40.2728 150.888 40.6602 150.72C41.0475 150.551 41.4486 150.467 41.8633 150.467C42.3919 150.467 42.8477 150.558 43.2305 150.74C43.6178 150.923 43.9346 151.178 44.1807 151.506C44.4268 151.829 44.609 152.212 44.7275 152.654C44.846 153.092 44.9053 153.57 44.9053 154.09V154.657H39.3818V153.625H43.6406V153.529C43.6224 153.201 43.554 152.882 43.4355 152.572C43.3216 152.262 43.1393 152.007 42.8887 151.807C42.638 151.606 42.2962 151.506 41.8633 151.506C41.5762 151.506 41.3118 151.567 41.0703 151.69C40.8288 151.809 40.6214 151.987 40.4482 152.224C40.2751 152.461 40.1406 152.75 40.0449 153.092C39.9492 153.434 39.9014 153.828 39.9014 154.274V154.562C39.9014 154.912 39.9492 155.243 40.0449 155.553C40.1452 155.858 40.2887 156.127 40.4756 156.359C40.667 156.592 40.8971 156.774 41.166 156.906C41.4395 157.038 41.7493 157.104 42.0957 157.104C42.5423 157.104 42.9206 157.013 43.2305 156.831C43.5404 156.649 43.8115 156.405 44.0439 156.1L44.8096 156.708C44.6501 156.95 44.4473 157.18 44.2012 157.398C43.9551 157.617 43.652 157.795 43.292 157.932C42.9365 158.068 42.515 158.137 42.0273 158.137ZM52.8145 157.098C53.1152 157.098 53.3932 157.036 53.6484 156.913C53.9036 156.79 54.1133 156.621 54.2773 156.407C54.4414 156.188 54.5348 155.94 54.5576 155.662H55.7607C55.738 156.1 55.5898 156.507 55.3164 156.886C55.0475 157.259 54.6943 157.562 54.2568 157.795C53.8193 158.023 53.3385 158.137 52.8145 158.137C52.2585 158.137 51.7731 158.039 51.3584 157.843C50.9482 157.647 50.6064 157.378 50.333 157.036C50.0641 156.694 49.8613 156.302 49.7246 155.86C49.5924 155.414 49.5264 154.942 49.5264 154.445V154.158C49.5264 153.661 49.5924 153.192 49.7246 152.75C49.8613 152.303 50.0641 151.909 50.333 151.567C50.6064 151.226 50.9482 150.957 51.3584 150.761C51.7731 150.565 52.2585 150.467 52.8145 150.467C53.3932 150.467 53.8991 150.585 54.332 150.822C54.765 151.055 55.1045 151.374 55.3506 151.779C55.6012 152.18 55.738 152.636 55.7607 153.146H54.5576C54.5348 152.841 54.4482 152.565 54.2979 152.319C54.152 152.073 53.9515 151.877 53.6963 151.731C53.4456 151.581 53.1517 151.506 52.8145 151.506C52.4271 151.506 52.1012 151.583 51.8369 151.738C51.5771 151.889 51.3698 152.094 51.2148 152.354C51.0645 152.609 50.9551 152.894 50.8867 153.208C50.8229 153.518 50.791 153.835 50.791 154.158V154.445C50.791 154.769 50.8229 155.088 50.8867 155.402C50.9505 155.717 51.0576 156.002 51.208 156.257C51.363 156.512 51.5703 156.717 51.8301 156.872C52.0944 157.022 52.4225 157.098 52.8145 157.098ZM60.252 158.137C59.737 158.137 59.2699 158.05 58.8506 157.877C58.4359 157.699 58.0781 157.451 57.7773 157.132C57.4811 156.813 57.2533 156.435 57.0938 155.997C56.9342 155.56 56.8545 155.081 56.8545 154.562V154.274C56.8545 153.673 56.9434 153.137 57.1211 152.668C57.2988 152.194 57.5404 151.793 57.8457 151.465C58.151 151.137 58.4974 150.888 58.8848 150.72C59.2721 150.551 59.6732 150.467 60.0879 150.467C60.6165 150.467 61.0723 150.558 61.4551 150.74C61.8424 150.923 62.1592 151.178 62.4053 151.506C62.6514 151.829 62.8337 152.212 62.9521 152.654C63.0706 153.092 63.1299 153.57 63.1299 154.09V154.657H57.6064V153.625H61.8652V153.529C61.847 153.201 61.7786 152.882 61.6602 152.572C61.5462 152.262 61.3639 152.007 61.1133 151.807C60.8626 151.606 60.5208 151.506 60.0879 151.506C59.8008 151.506 59.5365 151.567 59.2949 151.69C59.0534 151.809 58.846 151.987 58.6729 152.224C58.4997 152.461 58.3652 152.75 58.2695 153.092C58.1738 153.434 58.126 153.828 58.126 154.274V154.562C58.126 154.912 58.1738 155.243 58.2695 155.553C58.3698 155.858 58.5133 156.127 58.7002 156.359C58.8916 156.592 59.1217 156.774 59.3906 156.906C59.6641 157.038 59.974 157.104 60.3203 157.104C60.7669 157.104 61.1452 157.013 61.4551 156.831C61.765 156.649 62.0361 156.405 62.2686 156.1L63.0342 156.708C62.8747 156.95 62.6719 157.18 62.4258 157.398C62.1797 157.617 61.8766 157.795 61.5166 157.932C61.1611 158.068 60.7396 158.137 60.252 158.137ZM65.9805 150.604V158H64.7158V150.604H65.9805ZM70.834 150.604L67.3271 154.842H65.5566L65.3652 153.734H66.8145L69.2959 150.604H70.834ZM69.4736 158L66.7529 154.65L67.5664 153.734L71.0801 158H69.4736ZM73.4453 152.025V160.844H72.1738V150.604H73.3359L73.4453 152.025ZM78.4287 154.24V154.384C78.4287 154.922 78.3649 155.421 78.2373 155.881C78.1097 156.337 77.9229 156.733 77.6768 157.07C77.4352 157.408 77.1367 157.67 76.7812 157.856C76.4258 158.043 76.0179 158.137 75.5576 158.137C75.0882 158.137 74.6735 158.059 74.3135 157.904C73.9535 157.749 73.6481 157.524 73.3975 157.228C73.1468 156.931 72.9463 156.576 72.7959 156.161C72.6501 155.746 72.5498 155.279 72.4951 154.76V153.994C72.5498 153.447 72.6523 152.957 72.8027 152.524C72.9531 152.091 73.1514 151.722 73.3975 151.417C73.6481 151.107 73.9512 150.872 74.3066 150.713C74.6621 150.549 75.0723 150.467 75.5371 150.467C76.002 150.467 76.4144 150.558 76.7744 150.74C77.1344 150.918 77.4375 151.173 77.6836 151.506C77.9297 151.839 78.1143 152.237 78.2373 152.702C78.3649 153.162 78.4287 153.675 78.4287 154.24ZM77.1572 154.384V154.24C77.1572 153.871 77.1185 153.525 77.041 153.201C76.9635 152.873 76.8428 152.586 76.6787 152.34C76.5192 152.089 76.3141 151.893 76.0635 151.752C75.8128 151.606 75.5143 151.533 75.168 151.533C74.849 151.533 74.571 151.588 74.334 151.697C74.1016 151.807 73.9033 151.955 73.7393 152.142C73.5752 152.324 73.4408 152.534 73.3359 152.771C73.2357 153.003 73.1605 153.244 73.1104 153.495V155.266C73.2015 155.585 73.3291 155.885 73.4932 156.168C73.6572 156.446 73.876 156.672 74.1494 156.845C74.4229 157.013 74.7669 157.098 75.1816 157.098C75.5234 157.098 75.8174 157.027 76.0635 156.886C76.3141 156.74 76.5192 156.542 76.6787 156.291C76.8428 156.04 76.9635 155.753 77.041 155.43C77.1185 155.102 77.1572 154.753 77.1572 154.384ZM83.1113 158.137C82.5964 158.137 82.1292 158.05 81.71 157.877C81.2952 157.699 80.9375 157.451 80.6367 157.132C80.3405 156.813 80.1126 156.435 79.9531 155.997C79.7936 155.56 79.7139 155.081 79.7139 154.562V154.274C79.7139 153.673 79.8027 153.137 79.9805 152.668C80.1582 152.194 80.3997 151.793 80.7051 151.465C81.0104 151.137 81.3568 150.888 81.7441 150.72C82.1315 150.551 82.5326 150.467 82.9473 150.467C83.4759 150.467 83.9316 150.558 84.3145 150.74C84.7018 150.923 85.0186 151.178 85.2646 151.506C85.5107 151.829 85.693 152.212 85.8115 152.654C85.93 153.092 85.9893 153.57 85.9893 154.09V154.657H80.4658V153.625H84.7246V153.529C84.7064 153.201 84.638 152.882 84.5195 152.572C84.4056 152.262 84.2233 152.007 83.9727 151.807C83.722 151.606 83.3802 151.506 82.9473 151.506C82.6602 151.506 82.3958 151.567 82.1543 151.69C81.9128 151.809 81.7054 151.987 81.5322 152.224C81.359 152.461 81.2246 152.75 81.1289 153.092C81.0332 153.434 80.9854 153.828 80.9854 154.274V154.562C80.9854 154.912 81.0332 155.243 81.1289 155.553C81.2292 155.858 81.3727 156.127 81.5596 156.359C81.751 156.592 81.9811 156.774 82.25 156.906C82.5234 157.038 82.8333 157.104 83.1797 157.104C83.6263 157.104 84.0046 157.013 84.3145 156.831C84.6243 156.649 84.8955 156.405 85.1279 156.1L85.8936 156.708C85.734 156.95 85.5312 157.18 85.2852 157.398C85.0391 157.617 84.736 157.795 84.376 157.932C84.0205 158.068 83.599 158.137 83.1113 158.137ZM90.3984 150.604V158H89.127V150.604H90.3984ZM92.8799 150.604V151.629H86.6934V150.604H92.8799ZM99.1416 153.81V154.835H95.2314V153.81H99.1416ZM95.498 150.604V158H94.2334V150.604H95.498ZM100.167 150.604V158H98.8955V150.604H100.167ZM103.243 153.146H105.465C106.062 153.146 106.565 153.251 106.976 153.461C107.386 153.666 107.696 153.951 107.905 154.315C108.119 154.675 108.227 155.086 108.227 155.546C108.227 155.888 108.167 156.209 108.049 156.51C107.93 156.806 107.753 157.066 107.516 157.289C107.283 157.512 106.994 157.688 106.647 157.815C106.306 157.938 105.911 158 105.465 158H102.32V150.604H103.585V156.961H105.465C105.829 156.961 106.121 156.895 106.34 156.763C106.559 156.631 106.716 156.46 106.812 156.25C106.907 156.04 106.955 155.822 106.955 155.594C106.955 155.37 106.907 155.152 106.812 154.938C106.716 154.723 106.559 154.546 106.34 154.404C106.121 154.258 105.829 154.186 105.465 154.186H103.243V153.146ZM110.858 150.604V158H109.594V150.604H110.858ZM116.143 158.137C115.628 158.137 115.16 158.05 114.741 157.877C114.326 157.699 113.969 157.451 113.668 157.132C113.372 156.813 113.144 156.435 112.984 155.997C112.825 155.56 112.745 155.081 112.745 154.562V154.274C112.745 153.673 112.834 153.137 113.012 152.668C113.189 152.194 113.431 151.793 113.736 151.465C114.042 151.137 114.388 150.888 114.775 150.72C115.163 150.551 115.564 150.467 115.979 150.467C116.507 150.467 116.963 150.558 117.346 150.74C117.733 150.923 118.05 151.178 118.296 151.506C118.542 151.829 118.724 152.212 118.843 152.654C118.961 153.092 119.021 153.57 119.021 154.09V154.657H113.497V153.625H117.756V153.529C117.738 153.201 117.669 152.882 117.551 152.572C117.437 152.262 117.255 152.007 117.004 151.807C116.753 151.606 116.411 151.506 115.979 151.506C115.691 151.506 115.427 151.567 115.186 151.69C114.944 151.809 114.737 151.987 114.563 152.224C114.39 152.461 114.256 152.75 114.16 153.092C114.064 153.434 114.017 153.828 114.017 154.274V154.562C114.017 154.912 114.064 155.243 114.16 155.553C114.26 155.858 114.404 156.127 114.591 156.359C114.782 156.592 115.012 156.774 115.281 156.906C115.555 157.038 115.865 157.104 116.211 157.104C116.658 157.104 117.036 157.013 117.346 156.831C117.656 156.649 117.927 156.405 118.159 156.1L118.925 156.708C118.765 156.95 118.562 157.18 118.316 157.398C118.07 157.617 117.767 157.795 117.407 157.932C117.052 158.068 116.63 158.137 116.143 158.137ZM129.548 150.604V158H128.283V150.604H129.548ZM129.117 154.001V155.04C128.862 155.136 128.602 155.222 128.338 155.3C128.078 155.373 127.802 155.432 127.511 155.478C127.224 155.519 126.911 155.539 126.574 155.539C125.991 155.539 125.485 155.439 125.057 155.238C124.628 155.033 124.298 154.726 124.065 154.315C123.833 153.901 123.717 153.379 123.717 152.75V150.59H124.981V152.75C124.981 153.16 125.043 153.493 125.166 153.748C125.289 154.003 125.469 154.192 125.706 154.315C125.943 154.434 126.232 154.493 126.574 154.493C126.902 154.493 127.21 154.473 127.497 154.432C127.789 154.386 128.067 154.327 128.331 154.254C128.6 154.181 128.862 154.097 129.117 154.001ZM135.946 156.735V152.928C135.946 152.636 135.887 152.383 135.769 152.169C135.655 151.95 135.481 151.782 135.249 151.663C135.017 151.545 134.729 151.485 134.388 151.485C134.069 151.485 133.788 151.54 133.547 151.649C133.31 151.759 133.123 151.902 132.986 152.08C132.854 152.258 132.788 152.449 132.788 152.654H131.523C131.523 152.39 131.592 152.128 131.729 151.868C131.865 151.608 132.061 151.374 132.316 151.164C132.576 150.95 132.886 150.781 133.246 150.658C133.611 150.531 134.016 150.467 134.463 150.467C135.001 150.467 135.475 150.558 135.885 150.74C136.299 150.923 136.623 151.198 136.855 151.567C137.092 151.932 137.211 152.39 137.211 152.941V156.387C137.211 156.633 137.231 156.895 137.272 157.173C137.318 157.451 137.384 157.69 137.471 157.891V158H136.151C136.088 157.854 136.037 157.66 136.001 157.419C135.965 157.173 135.946 156.945 135.946 156.735ZM136.165 153.516L136.179 154.404H134.9C134.54 154.404 134.219 154.434 133.937 154.493C133.654 154.548 133.417 154.632 133.226 154.746C133.034 154.86 132.888 155.004 132.788 155.177C132.688 155.345 132.638 155.544 132.638 155.771C132.638 156.004 132.69 156.216 132.795 156.407C132.9 156.599 133.057 156.751 133.267 156.865C133.481 156.975 133.743 157.029 134.053 157.029C134.44 157.029 134.782 156.947 135.078 156.783C135.374 156.619 135.609 156.419 135.782 156.182C135.96 155.945 136.056 155.715 136.069 155.491L136.609 156.1C136.577 156.291 136.491 156.503 136.35 156.735C136.208 156.968 136.019 157.191 135.782 157.405C135.55 157.615 135.272 157.79 134.948 157.932C134.629 158.068 134.269 158.137 133.868 158.137C133.367 158.137 132.927 158.039 132.549 157.843C132.175 157.647 131.883 157.385 131.674 157.057C131.469 156.724 131.366 156.353 131.366 155.942C131.366 155.546 131.444 155.197 131.599 154.896C131.754 154.591 131.977 154.338 132.269 154.138C132.56 153.933 132.911 153.778 133.321 153.673C133.731 153.568 134.189 153.516 134.695 153.516H136.165ZM142.105 150.604V158H140.834V150.604H142.105ZM144.587 150.604V151.629H138.4V150.604H144.587ZM146.87 153.146H149.092C149.689 153.146 150.192 153.251 150.603 153.461C151.013 153.666 151.323 153.951 151.532 154.315C151.746 154.675 151.854 155.086 151.854 155.546C151.854 155.888 151.794 156.209 151.676 156.51C151.557 156.806 151.38 157.066 151.143 157.289C150.91 157.512 150.621 157.688 150.274 157.815C149.933 157.938 149.538 158 149.092 158H145.947V150.604H147.212V156.961H149.092C149.456 156.961 149.748 156.895 149.967 156.763C150.186 156.631 150.343 156.46 150.438 156.25C150.534 156.04 150.582 155.822 150.582 155.594C150.582 155.37 150.534 155.152 150.438 154.938C150.343 154.723 150.186 154.546 149.967 154.404C149.748 154.258 149.456 154.186 149.092 154.186H146.87V153.146ZM154.485 150.604V158H153.221V150.604H154.485ZM163.133 157.098C163.434 157.098 163.712 157.036 163.967 156.913C164.222 156.79 164.432 156.621 164.596 156.407C164.76 156.188 164.853 155.94 164.876 155.662H166.079C166.056 156.1 165.908 156.507 165.635 156.886C165.366 157.259 165.013 157.562 164.575 157.795C164.138 158.023 163.657 158.137 163.133 158.137C162.577 158.137 162.091 158.039 161.677 157.843C161.267 157.647 160.925 157.378 160.651 157.036C160.382 156.694 160.18 156.302 160.043 155.86C159.911 155.414 159.845 154.942 159.845 154.445V154.158C159.845 153.661 159.911 153.192 160.043 152.75C160.18 152.303 160.382 151.909 160.651 151.567C160.925 151.226 161.267 150.957 161.677 150.761C162.091 150.565 162.577 150.467 163.133 150.467C163.712 150.467 164.217 150.585 164.65 150.822C165.083 151.055 165.423 151.374 165.669 151.779C165.92 152.18 166.056 152.636 166.079 153.146H164.876C164.853 152.841 164.767 152.565 164.616 152.319C164.47 152.073 164.27 151.877 164.015 151.731C163.764 151.581 163.47 151.506 163.133 151.506C162.745 151.506 162.42 151.583 162.155 151.738C161.896 151.889 161.688 152.094 161.533 152.354C161.383 152.609 161.273 152.894 161.205 153.208C161.141 153.518 161.109 153.835 161.109 154.158V154.445C161.109 154.769 161.141 155.088 161.205 155.402C161.269 155.717 161.376 156.002 161.526 156.257C161.681 156.512 161.889 156.717 162.148 156.872C162.413 157.022 162.741 157.098 163.133 157.098ZM175.991 153.81V154.835H172.081V153.81H175.991ZM172.348 150.604V158H171.083V150.604H172.348ZM177.017 150.604V158H175.745V150.604H177.017ZM178.719 154.384V154.227C178.719 153.693 178.796 153.199 178.951 152.743C179.106 152.283 179.329 151.884 179.621 151.547C179.913 151.205 180.266 150.941 180.681 150.754C181.095 150.562 181.56 150.467 182.075 150.467C182.595 150.467 183.062 150.562 183.477 150.754C183.896 150.941 184.251 151.205 184.543 151.547C184.839 151.884 185.065 152.283 185.22 152.743C185.375 153.199 185.452 153.693 185.452 154.227V154.384C185.452 154.917 185.375 155.411 185.22 155.867C185.065 156.323 184.839 156.722 184.543 157.063C184.251 157.401 183.898 157.665 183.483 157.856C183.073 158.043 182.608 158.137 182.089 158.137C181.569 158.137 181.102 158.043 180.688 157.856C180.273 157.665 179.917 157.401 179.621 157.063C179.329 156.722 179.106 156.323 178.951 155.867C178.796 155.411 178.719 154.917 178.719 154.384ZM179.983 154.227V154.384C179.983 154.753 180.027 155.102 180.113 155.43C180.2 155.753 180.33 156.04 180.503 156.291C180.681 156.542 180.902 156.74 181.166 156.886C181.43 157.027 181.738 157.098 182.089 157.098C182.435 157.098 182.738 157.027 182.998 156.886C183.262 156.74 183.481 156.542 183.654 156.291C183.827 156.04 183.957 155.753 184.044 155.43C184.135 155.102 184.181 154.753 184.181 154.384V154.227C184.181 153.862 184.135 153.518 184.044 153.194C183.957 152.866 183.825 152.577 183.647 152.326C183.474 152.071 183.256 151.87 182.991 151.725C182.731 151.579 182.426 151.506 182.075 151.506C181.729 151.506 181.424 151.579 181.159 151.725C180.899 151.87 180.681 152.071 180.503 152.326C180.33 152.577 180.2 152.866 180.113 153.194C180.027 153.518 179.983 153.862 179.983 154.227ZM190.511 154.746H188.084L188.07 153.734H190.053C190.445 153.734 190.771 153.696 191.03 153.618C191.295 153.541 191.493 153.424 191.625 153.27C191.757 153.115 191.823 152.923 191.823 152.695C191.823 152.518 191.785 152.363 191.707 152.23C191.634 152.094 191.522 151.982 191.372 151.896C191.222 151.804 191.035 151.738 190.812 151.697C190.593 151.652 190.335 151.629 190.039 151.629H188.419V158H187.154V150.604H190.039C190.508 150.604 190.93 150.645 191.304 150.727C191.682 150.809 192.003 150.934 192.268 151.103C192.536 151.267 192.742 151.476 192.883 151.731C193.024 151.987 193.095 152.287 193.095 152.634C193.095 152.857 193.049 153.069 192.958 153.27C192.867 153.47 192.732 153.648 192.555 153.803C192.377 153.958 192.158 154.085 191.898 154.186C191.639 154.281 191.34 154.343 191.003 154.37L190.511 154.746ZM190.511 158H187.626L188.255 156.975H190.511C190.862 156.975 191.153 156.931 191.386 156.845C191.618 156.754 191.791 156.626 191.905 156.462C192.024 156.293 192.083 156.093 192.083 155.86C192.083 155.628 192.024 155.43 191.905 155.266C191.791 155.097 191.618 154.969 191.386 154.883C191.153 154.792 190.862 154.746 190.511 154.746H188.59L188.604 153.734H191.003L191.461 154.117C191.867 154.149 192.211 154.249 192.493 154.418C192.776 154.587 192.99 154.801 193.136 155.061C193.282 155.316 193.354 155.594 193.354 155.895C193.354 156.241 193.288 156.546 193.156 156.811C193.029 157.075 192.842 157.296 192.596 157.474C192.35 157.647 192.051 157.779 191.7 157.87C191.349 157.957 190.953 158 190.511 158ZM194.715 154.384V154.227C194.715 153.693 194.792 153.199 194.947 152.743C195.102 152.283 195.326 151.884 195.617 151.547C195.909 151.205 196.262 150.941 196.677 150.754C197.091 150.562 197.556 150.467 198.071 150.467C198.591 150.467 199.058 150.562 199.473 150.754C199.892 150.941 200.247 151.205 200.539 151.547C200.835 151.884 201.061 152.283 201.216 152.743C201.371 153.199 201.448 153.693 201.448 154.227V154.384C201.448 154.917 201.371 155.411 201.216 155.867C201.061 156.323 200.835 156.722 200.539 157.063C200.247 157.401 199.894 157.665 199.479 157.856C199.069 158.043 198.604 158.137 198.085 158.137C197.565 158.137 197.098 158.043 196.684 157.856C196.269 157.665 195.913 157.401 195.617 157.063C195.326 156.722 195.102 156.323 194.947 155.867C194.792 155.411 194.715 154.917 194.715 154.384ZM195.979 154.227V154.384C195.979 154.753 196.023 155.102 196.109 155.43C196.196 155.753 196.326 156.04 196.499 156.291C196.677 156.542 196.898 156.74 197.162 156.886C197.426 157.027 197.734 157.098 198.085 157.098C198.431 157.098 198.734 157.027 198.994 156.886C199.258 156.74 199.477 156.542 199.65 156.291C199.824 156.04 199.953 155.753 200.04 155.43C200.131 155.102 200.177 154.753 200.177 154.384V154.227C200.177 153.862 200.131 153.518 200.04 153.194C199.953 152.866 199.821 152.577 199.644 152.326C199.47 152.071 199.252 151.87 198.987 151.725C198.728 151.579 198.422 151.506 198.071 151.506C197.725 151.506 197.42 151.579 197.155 151.725C196.896 151.87 196.677 152.071 196.499 152.326C196.326 152.577 196.196 152.866 196.109 153.194C196.023 153.518 195.979 153.862 195.979 154.227ZM204.401 155.997L207.812 150.604H209.084V158H207.812V152.606L204.401 158H203.144V150.604H204.401V155.997ZM207.122 147.924H208.147C208.147 148.279 208.065 148.596 207.901 148.874C207.737 149.147 207.503 149.362 207.197 149.517C206.892 149.672 206.53 149.749 206.11 149.749C205.477 149.749 204.976 149.58 204.606 149.243C204.242 148.901 204.06 148.462 204.06 147.924H205.085C205.085 148.193 205.162 148.43 205.317 148.635C205.472 148.84 205.737 148.942 206.11 148.942C206.475 148.942 206.735 148.84 206.89 148.635C207.045 148.43 207.122 148.193 207.122 147.924ZM217.602 150.604V158H216.33V150.604H217.602ZM220.083 150.604V151.629H213.896V150.604H220.083ZM223.85 158.137C223.335 158.137 222.868 158.05 222.448 157.877C222.034 157.699 221.676 157.451 221.375 157.132C221.079 156.813 220.851 156.435 220.691 155.997C220.532 155.56 220.452 155.081 220.452 154.562V154.274C220.452 153.673 220.541 153.137 220.719 152.668C220.896 152.194 221.138 151.793 221.443 151.465C221.749 151.137 222.095 150.888 222.482 150.72C222.87 150.551 223.271 150.467 223.686 150.467C224.214 150.467 224.67 150.558 225.053 150.74C225.44 150.923 225.757 151.178 226.003 151.506C226.249 151.829 226.431 152.212 226.55 152.654C226.668 153.092 226.728 153.57 226.728 154.09V154.657H221.204V153.625H225.463V153.529C225.445 153.201 225.376 152.882 225.258 152.572C225.144 152.262 224.962 152.007 224.711 151.807C224.46 151.606 224.118 151.506 223.686 151.506C223.398 151.506 223.134 151.567 222.893 151.69C222.651 151.809 222.444 151.987 222.271 152.224C222.097 152.461 221.963 152.75 221.867 153.092C221.771 153.434 221.724 153.828 221.724 154.274V154.562C221.724 154.912 221.771 155.243 221.867 155.553C221.967 155.858 222.111 156.127 222.298 156.359C222.489 156.592 222.719 156.774 222.988 156.906C223.262 157.038 223.572 157.104 223.918 157.104C224.365 157.104 224.743 157.013 225.053 156.831C225.363 156.649 225.634 156.405 225.866 156.1L226.632 156.708C226.472 156.95 226.27 157.18 226.023 157.398C225.777 157.617 225.474 157.795 225.114 157.932C224.759 158.068 224.337 158.137 223.85 158.137ZM229.059 150.604L230.679 153.297L232.319 150.604H233.803L231.383 154.254L233.878 158H232.415L230.706 155.225L228.997 158H227.527L230.016 154.254L227.603 150.604H229.059ZM240.167 153.81V154.835H236.257V153.81H240.167ZM236.523 150.604V158H235.259V150.604H236.523ZM241.192 150.604V158H239.921V150.604H241.192ZM242.895 154.384V154.227C242.895 153.693 242.972 153.199 243.127 152.743C243.282 152.283 243.505 151.884 243.797 151.547C244.089 151.205 244.442 150.941 244.856 150.754C245.271 150.562 245.736 150.467 246.251 150.467C246.771 150.467 247.238 150.562 247.652 150.754C248.072 150.941 248.427 151.205 248.719 151.547C249.015 151.884 249.241 152.283 249.396 152.743C249.55 153.199 249.628 153.693 249.628 154.227V154.384C249.628 154.917 249.55 155.411 249.396 155.867C249.241 156.323 249.015 156.722 248.719 157.063C248.427 157.401 248.074 157.665 247.659 157.856C247.249 158.043 246.784 158.137 246.265 158.137C245.745 158.137 245.278 158.043 244.863 157.856C244.449 157.665 244.093 157.401 243.797 157.063C243.505 156.722 243.282 156.323 243.127 155.867C242.972 155.411 242.895 154.917 242.895 154.384ZM244.159 154.227V154.384C244.159 154.753 244.202 155.102 244.289 155.43C244.376 155.753 244.506 156.04 244.679 156.291C244.856 156.542 245.077 156.74 245.342 156.886C245.606 157.027 245.914 157.098 246.265 157.098C246.611 157.098 246.914 157.027 247.174 156.886C247.438 156.74 247.657 156.542 247.83 156.291C248.003 156.04 248.133 155.753 248.22 155.43C248.311 155.102 248.356 154.753 248.356 154.384V154.227C248.356 153.862 248.311 153.518 248.22 153.194C248.133 152.866 248.001 152.577 247.823 152.326C247.65 152.071 247.431 151.87 247.167 151.725C246.907 151.579 246.602 151.506 246.251 151.506C245.905 151.506 245.599 151.579 245.335 151.725C245.075 151.87 244.856 152.071 244.679 152.326C244.506 152.577 244.376 152.866 244.289 153.194C244.202 153.518 244.159 153.862 244.159 154.227ZM256.047 150.604V151.649H252.472V150.604H256.047ZM257.161 150.604V158H255.896V150.604H257.161ZM252.164 150.604H253.436L253.244 154.172C253.212 154.723 253.16 155.211 253.087 155.635C253.019 156.054 252.923 156.414 252.8 156.715C252.681 157.016 252.531 157.262 252.349 157.453C252.171 157.64 251.957 157.779 251.706 157.87C251.455 157.957 251.166 158 250.838 158H250.441V156.886L250.715 156.865C250.911 156.852 251.077 156.806 251.214 156.729C251.355 156.651 251.474 156.537 251.569 156.387C251.665 156.232 251.743 156.034 251.802 155.792C251.866 155.55 251.913 155.263 251.945 154.931C251.982 154.598 252.009 154.211 252.027 153.769L252.164 150.604ZM258.863 154.384V154.227C258.863 153.693 258.941 153.199 259.096 152.743C259.251 152.283 259.474 151.884 259.766 151.547C260.057 151.205 260.41 150.941 260.825 150.754C261.24 150.562 261.705 150.467 262.22 150.467C262.739 150.467 263.206 150.562 263.621 150.754C264.04 150.941 264.396 151.205 264.688 151.547C264.984 151.884 265.209 152.283 265.364 152.743C265.519 153.199 265.597 153.693 265.597 154.227V154.384C265.597 154.917 265.519 155.411 265.364 155.867C265.209 156.323 264.984 156.722 264.688 157.063C264.396 157.401 264.043 157.665 263.628 157.856C263.218 158.043 262.753 158.137 262.233 158.137C261.714 158.137 261.247 158.043 260.832 157.856C260.417 157.665 260.062 157.401 259.766 157.063C259.474 156.722 259.251 156.323 259.096 155.867C258.941 155.411 258.863 154.917 258.863 154.384ZM260.128 154.227V154.384C260.128 154.753 260.171 155.102 260.258 155.43C260.344 155.753 260.474 156.04 260.647 156.291C260.825 156.542 261.046 156.74 261.311 156.886C261.575 157.027 261.882 157.098 262.233 157.098C262.58 157.098 262.883 157.027 263.143 156.886C263.407 156.74 263.626 156.542 263.799 156.291C263.972 156.04 264.102 155.753 264.188 155.43C264.28 155.102 264.325 154.753 264.325 154.384V154.227C264.325 153.862 264.28 153.518 264.188 153.194C264.102 152.866 263.97 152.577 263.792 152.326C263.619 152.071 263.4 151.87 263.136 151.725C262.876 151.579 262.571 151.506 262.22 151.506C261.873 151.506 261.568 151.579 261.304 151.725C261.044 151.87 260.825 152.071 260.647 152.326C260.474 152.577 260.344 152.866 260.258 153.194C260.171 153.518 260.128 153.862 260.128 154.227ZM271.961 150.604V151.649H268.543V158H267.278V150.604H271.961ZM274.429 155.997L277.84 150.604H279.111V158H277.84V152.606L274.429 158H273.171V150.604H274.429V155.997ZM284.211 158.137C283.696 158.137 283.229 158.05 282.81 157.877C282.395 157.699 282.037 157.451 281.736 157.132C281.44 156.813 281.212 156.435 281.053 155.997C280.893 155.56 280.813 155.081 280.813 154.562V154.274C280.813 153.673 280.902 153.137 281.08 152.668C281.258 152.194 281.499 151.793 281.805 151.465C282.11 151.137 282.456 150.888 282.844 150.72C283.231 150.551 283.632 150.467 284.047 150.467C284.576 150.467 285.031 150.558 285.414 150.74C285.801 150.923 286.118 151.178 286.364 151.506C286.61 151.829 286.793 152.212 286.911 152.654C287.03 153.092 287.089 153.57 287.089 154.09V154.657H281.565V153.625H285.824V153.529C285.806 153.201 285.738 152.882 285.619 152.572C285.505 152.262 285.323 152.007 285.072 151.807C284.822 151.606 284.48 151.506 284.047 151.506C283.76 151.506 283.495 151.567 283.254 151.69C283.012 151.809 282.805 151.987 282.632 152.224C282.459 152.461 282.324 152.75 282.229 153.092C282.133 153.434 282.085 153.828 282.085 154.274V154.562C282.085 154.912 282.133 155.243 282.229 155.553C282.329 155.858 282.472 156.127 282.659 156.359C282.851 156.592 283.081 156.774 283.35 156.906C283.623 157.038 283.933 157.104 284.279 157.104C284.726 157.104 285.104 157.013 285.414 156.831C285.724 156.649 285.995 156.405 286.228 156.1L286.993 156.708C286.834 156.95 286.631 157.18 286.385 157.398C286.139 157.617 285.836 157.795 285.476 157.932C285.12 158.068 284.699 158.137 284.211 158.137ZM289.933 155.997L293.344 150.604H294.615V158H293.344V152.606L289.933 158H288.675V150.604H289.933V155.997ZM292.653 147.924H293.679C293.679 148.279 293.597 148.596 293.433 148.874C293.269 149.147 293.034 149.362 292.729 149.517C292.423 149.672 292.061 149.749 291.642 149.749C291.008 149.749 290.507 149.58 290.138 149.243C289.773 148.901 289.591 148.462 289.591 147.924H290.616C290.616 148.193 290.694 148.43 290.849 148.635C291.004 148.84 291.268 148.942 291.642 148.942C292.006 148.942 292.266 148.84 292.421 148.635C292.576 148.43 292.653 148.193 292.653 147.924ZM300.228 150.604H301.492V156.961H304.199V150.604H305.471V156.961H308.171V150.604H309.436V158H300.228V150.604ZM312.819 155.997L316.23 150.604H317.502V158H316.23V152.606L312.819 158H311.562V150.604H312.819V155.997ZM328.036 154.432V154.575C328.036 155.095 327.979 155.573 327.865 156.011C327.751 156.444 327.58 156.82 327.353 157.139C327.129 157.458 326.851 157.706 326.519 157.884C326.186 158.057 325.801 158.144 325.363 158.144C325.003 158.144 324.687 158.096 324.413 158C324.14 157.9 323.907 157.756 323.716 157.569C323.529 157.382 323.379 157.159 323.265 156.899C323.155 156.635 323.08 156.339 323.039 156.011V152.729C323.08 152.379 323.155 152.064 323.265 151.786C323.379 151.508 323.529 151.271 323.716 151.075C323.907 150.879 324.137 150.729 324.406 150.624C324.675 150.519 324.99 150.467 325.35 150.467C325.705 150.467 326.024 150.531 326.307 150.658C326.594 150.781 326.844 150.959 327.059 151.191C327.277 151.424 327.457 151.704 327.599 152.032C327.744 152.356 327.854 152.72 327.927 153.126C328 153.532 328.036 153.967 328.036 154.432ZM326.771 154.575V154.432C326.771 154.113 326.749 153.81 326.703 153.522C326.662 153.231 326.596 152.964 326.505 152.723C326.418 152.477 326.304 152.262 326.163 152.08C326.022 151.898 325.851 151.757 325.65 151.656C325.454 151.556 325.229 151.506 324.974 151.506C324.7 151.506 324.472 151.54 324.29 151.608C324.112 151.677 323.973 151.768 323.873 151.882C323.773 151.991 323.7 152.107 323.654 152.23V156.517C323.709 156.617 323.789 156.713 323.894 156.804C323.998 156.89 324.14 156.963 324.317 157.022C324.495 157.077 324.718 157.104 324.987 157.104C325.306 157.104 325.577 157.041 325.801 156.913C326.029 156.781 326.213 156.599 326.354 156.366C326.5 156.134 326.605 155.865 326.669 155.56C326.737 155.254 326.771 154.926 326.771 154.575ZM319.252 154.575V154.432C319.252 153.967 319.288 153.532 319.361 153.126C319.434 152.72 319.544 152.356 319.689 152.032C319.835 151.704 320.015 151.424 320.229 151.191C320.448 150.959 320.699 150.781 320.981 150.658C321.269 150.531 321.59 150.467 321.945 150.467C322.296 150.467 322.602 150.519 322.861 150.624C323.126 150.729 323.349 150.879 323.531 151.075C323.714 151.271 323.859 151.508 323.969 151.786C324.078 152.064 324.156 152.379 324.201 152.729V155.881C324.16 156.227 324.085 156.539 323.976 156.817C323.866 157.095 323.72 157.335 323.538 157.535C323.356 157.731 323.13 157.882 322.861 157.986C322.597 158.091 322.287 158.144 321.932 158.144C321.494 158.144 321.109 158.057 320.776 157.884C320.444 157.706 320.163 157.458 319.936 157.139C319.712 156.82 319.541 156.444 319.423 156.011C319.309 155.573 319.252 155.095 319.252 154.575ZM320.523 154.432V154.575C320.523 154.926 320.553 155.254 320.612 155.56C320.676 155.865 320.774 156.134 320.906 156.366C321.043 156.599 321.221 156.781 321.439 156.913C321.658 157.041 321.927 157.104 322.246 157.104C322.52 157.104 322.745 157.07 322.923 157.002C323.101 156.934 323.242 156.845 323.347 156.735C323.451 156.626 323.531 156.512 323.586 156.394V152.23C323.54 152.107 323.465 151.991 323.36 151.882C323.26 151.768 323.121 151.677 322.943 151.608C322.766 151.54 322.538 151.506 322.26 151.506C321.941 151.506 321.67 151.583 321.446 151.738C321.223 151.893 321.043 152.105 320.906 152.374C320.774 152.643 320.676 152.955 320.612 153.311C320.553 153.661 320.523 154.035 320.523 154.432ZM322.957 160.844V147.5H324.229V160.844H322.957ZM330.955 152.025V160.844H329.684V150.604H330.846L330.955 152.025ZM335.938 154.24V154.384C335.938 154.922 335.875 155.421 335.747 155.881C335.619 156.337 335.433 156.733 335.187 157.07C334.945 157.408 334.646 157.67 334.291 157.856C333.936 158.043 333.528 158.137 333.067 158.137C332.598 158.137 332.183 158.059 331.823 157.904C331.463 157.749 331.158 157.524 330.907 157.228C330.657 156.931 330.456 156.576 330.306 156.161C330.16 155.746 330.06 155.279 330.005 154.76V153.994C330.06 153.447 330.162 152.957 330.312 152.524C330.463 152.091 330.661 151.722 330.907 151.417C331.158 151.107 331.461 150.872 331.816 150.713C332.172 150.549 332.582 150.467 333.047 150.467C333.512 150.467 333.924 150.558 334.284 150.74C334.644 150.918 334.947 151.173 335.193 151.506C335.439 151.839 335.624 152.237 335.747 152.702C335.875 153.162 335.938 153.675 335.938 154.24ZM334.667 154.384V154.24C334.667 153.871 334.628 153.525 334.551 153.201C334.473 152.873 334.353 152.586 334.188 152.34C334.029 152.089 333.824 151.893 333.573 151.752C333.323 151.606 333.024 151.533 332.678 151.533C332.359 151.533 332.081 151.588 331.844 151.697C331.611 151.807 331.413 151.955 331.249 152.142C331.085 152.324 330.951 152.534 330.846 152.771C330.745 153.003 330.67 153.244 330.62 153.495V155.266C330.711 155.585 330.839 155.885 331.003 156.168C331.167 156.446 331.386 156.672 331.659 156.845C331.933 157.013 332.277 157.098 332.691 157.098C333.033 157.098 333.327 157.027 333.573 156.886C333.824 156.74 334.029 156.542 334.188 156.291C334.353 156.04 334.473 155.753 334.551 155.43C334.628 155.102 334.667 154.753 334.667 154.384ZM337.217 154.384V154.227C337.217 153.693 337.294 153.199 337.449 152.743C337.604 152.283 337.827 151.884 338.119 151.547C338.411 151.205 338.764 150.941 339.179 150.754C339.593 150.562 340.058 150.467 340.573 150.467C341.093 150.467 341.56 150.562 341.975 150.754C342.394 150.941 342.749 151.205 343.041 151.547C343.337 151.884 343.563 152.283 343.718 152.743C343.873 153.199 343.95 153.693 343.95 154.227V154.384C343.95 154.917 343.873 155.411 343.718 155.867C343.563 156.323 343.337 156.722 343.041 157.063C342.749 157.401 342.396 157.665 341.981 157.856C341.571 158.043 341.106 158.137 340.587 158.137C340.067 158.137 339.6 158.043 339.186 157.856C338.771 157.665 338.415 157.401 338.119 157.063C337.827 156.722 337.604 156.323 337.449 155.867C337.294 155.411 337.217 154.917 337.217 154.384ZM338.481 154.227V154.384C338.481 154.753 338.525 155.102 338.611 155.43C338.698 155.753 338.828 156.04 339.001 156.291C339.179 156.542 339.4 156.74 339.664 156.886C339.928 157.027 340.236 157.098 340.587 157.098C340.933 157.098 341.236 157.027 341.496 156.886C341.76 156.74 341.979 156.542 342.152 156.291C342.326 156.04 342.455 155.753 342.542 155.43C342.633 155.102 342.679 154.753 342.679 154.384V154.227C342.679 153.862 342.633 153.518 342.542 153.194C342.455 152.866 342.323 152.577 342.146 152.326C341.972 152.071 341.754 151.87 341.489 151.725C341.229 151.579 340.924 151.506 340.573 151.506C340.227 151.506 339.922 151.579 339.657 151.725C339.397 151.87 339.179 152.071 339.001 152.326C338.828 152.577 338.698 152.866 338.611 153.194C338.525 153.518 338.481 153.862 338.481 154.227ZM349.009 154.746H346.582L346.568 153.734H348.551C348.943 153.734 349.269 153.696 349.528 153.618C349.793 153.541 349.991 153.424 350.123 153.27C350.255 153.115 350.321 152.923 350.321 152.695C350.321 152.518 350.283 152.363 350.205 152.23C350.132 152.094 350.021 151.982 349.87 151.896C349.72 151.804 349.533 151.738 349.31 151.697C349.091 151.652 348.833 151.629 348.537 151.629H346.917V158H345.652V150.604H348.537C349.007 150.604 349.428 150.645 349.802 150.727C350.18 150.809 350.501 150.934 350.766 151.103C351.035 151.267 351.24 151.476 351.381 151.731C351.522 151.987 351.593 152.287 351.593 152.634C351.593 152.857 351.547 153.069 351.456 153.27C351.365 153.47 351.23 153.648 351.053 153.803C350.875 153.958 350.656 154.085 350.396 154.186C350.137 154.281 349.838 154.343 349.501 154.37L349.009 154.746ZM349.009 158H346.124L346.753 156.975H349.009C349.36 156.975 349.651 156.931 349.884 156.845C350.116 156.754 350.289 156.626 350.403 156.462C350.522 156.293 350.581 156.093 350.581 155.86C350.581 155.628 350.522 155.43 350.403 155.266C350.289 155.097 350.116 154.969 349.884 154.883C349.651 154.792 349.36 154.746 349.009 154.746H347.088L347.102 153.734H349.501L349.959 154.117C350.365 154.149 350.709 154.249 350.991 154.418C351.274 154.587 351.488 154.801 351.634 155.061C351.78 155.316 351.853 155.594 351.853 155.895C351.853 156.241 351.786 156.546 351.654 156.811C351.527 157.075 351.34 157.296 351.094 157.474C350.848 157.647 350.549 157.779 350.198 157.87C349.847 157.957 349.451 158 349.009 158ZM357.909 156.735V152.928C357.909 152.636 357.85 152.383 357.731 152.169C357.618 151.95 357.444 151.782 357.212 151.663C356.979 151.545 356.692 151.485 356.351 151.485C356.032 151.485 355.751 151.54 355.51 151.649C355.273 151.759 355.086 151.902 354.949 152.08C354.817 152.258 354.751 152.449 354.751 152.654H353.486C353.486 152.39 353.555 152.128 353.691 151.868C353.828 151.608 354.024 151.374 354.279 151.164C354.539 150.95 354.849 150.781 355.209 150.658C355.574 150.531 355.979 150.467 356.426 150.467C356.964 150.467 357.438 150.558 357.848 150.74C358.262 150.923 358.586 151.198 358.818 151.567C359.055 151.932 359.174 152.39 359.174 152.941V156.387C359.174 156.633 359.194 156.895 359.235 157.173C359.281 157.451 359.347 157.69 359.434 157.891V158H358.114C358.05 157.854 358 157.66 357.964 157.419C357.927 157.173 357.909 156.945 357.909 156.735ZM358.128 153.516L358.142 154.404H356.863C356.503 154.404 356.182 154.434 355.899 154.493C355.617 154.548 355.38 154.632 355.188 154.746C354.997 154.86 354.851 155.004 354.751 155.177C354.651 155.345 354.601 155.544 354.601 155.771C354.601 156.004 354.653 156.216 354.758 156.407C354.863 156.599 355.02 156.751 355.229 156.865C355.444 156.975 355.706 157.029 356.016 157.029C356.403 157.029 356.745 156.947 357.041 156.783C357.337 156.619 357.572 156.419 357.745 156.182C357.923 155.945 358.019 155.715 358.032 155.491L358.572 156.1C358.54 156.291 358.454 156.503 358.312 156.735C358.171 156.968 357.982 157.191 357.745 157.405C357.513 157.615 357.235 157.79 356.911 157.932C356.592 158.068 356.232 158.137 355.831 158.137C355.33 158.137 354.89 158.039 354.512 157.843C354.138 157.647 353.846 157.385 353.637 157.057C353.432 156.724 353.329 156.353 353.329 155.942C353.329 155.546 353.407 155.197 353.562 154.896C353.716 154.591 353.94 154.338 354.231 154.138C354.523 153.933 354.874 153.778 355.284 153.673C355.694 153.568 356.152 153.516 356.658 153.516H358.128ZM366.181 153.81V154.835H362.271V153.81H366.181ZM362.537 150.604V158H361.272V150.604H362.537ZM367.206 150.604V158H365.935V150.604H367.206ZM370.61 155.997L374.021 150.604H375.293V158H374.021V152.606L370.61 158H369.353V150.604H370.61V155.997ZM378.82 154.473H380.188L378.048 158H376.681L378.82 154.473ZM379.88 150.604H382.97V158H381.705V151.629H379.88C379.52 151.629 379.226 151.69 378.998 151.813C378.77 151.932 378.604 152.087 378.499 152.278C378.394 152.47 378.342 152.668 378.342 152.873C378.342 153.074 378.39 153.267 378.485 153.454C378.581 153.636 378.731 153.787 378.937 153.905C379.142 154.024 379.406 154.083 379.729 154.083H382.047V155.122H379.729C379.306 155.122 378.93 155.065 378.602 154.951C378.273 154.837 377.995 154.68 377.768 154.479C377.54 154.274 377.367 154.035 377.248 153.762C377.13 153.484 377.07 153.183 377.07 152.859C377.07 152.536 377.132 152.237 377.255 151.964C377.382 151.69 377.565 151.451 377.802 151.246C378.043 151.041 378.337 150.884 378.684 150.774C379.035 150.66 379.433 150.604 379.88 150.604ZM389.812 150.604H391.077L390.968 153.372C390.94 154.074 390.861 154.68 390.729 155.19C390.596 155.701 390.428 156.136 390.223 156.496C390.018 156.852 389.787 157.15 389.532 157.392C389.282 157.633 389.022 157.836 388.753 158H388.124L388.158 156.968L388.418 156.961C388.568 156.783 388.714 156.601 388.855 156.414C388.997 156.223 389.127 155.997 389.245 155.737C389.364 155.473 389.462 155.152 389.539 154.773C389.621 154.391 389.674 153.924 389.696 153.372L389.812 150.604ZM390.127 150.604H394.577V158H393.312V151.772H390.127V150.604ZM387.837 156.961H395.527V160.181H394.263V158H389.102V160.181H387.83L387.837 156.961ZM401.29 156.735V152.928C401.29 152.636 401.231 152.383 401.112 152.169C400.998 151.95 400.825 151.782 400.593 151.663C400.36 151.545 400.073 151.485 399.731 151.485C399.412 151.485 399.132 151.54 398.891 151.649C398.654 151.759 398.467 151.902 398.33 152.08C398.198 152.258 398.132 152.449 398.132 152.654H396.867C396.867 152.39 396.936 152.128 397.072 151.868C397.209 151.608 397.405 151.374 397.66 151.164C397.92 150.95 398.23 150.781 398.59 150.658C398.954 150.531 399.36 150.467 399.807 150.467C400.344 150.467 400.818 150.558 401.229 150.74C401.643 150.923 401.967 151.198 402.199 151.567C402.436 151.932 402.555 152.39 402.555 152.941V156.387C402.555 156.633 402.575 156.895 402.616 157.173C402.662 157.451 402.728 157.69 402.814 157.891V158H401.495C401.431 157.854 401.381 157.66 401.345 157.419C401.308 157.173 401.29 156.945 401.29 156.735ZM401.509 153.516L401.522 154.404H400.244C399.884 154.404 399.563 154.434 399.28 154.493C398.998 154.548 398.761 154.632 398.569 154.746C398.378 154.86 398.232 155.004 398.132 155.177C398.032 155.345 397.981 155.544 397.981 155.771C397.981 156.004 398.034 156.216 398.139 156.407C398.243 156.599 398.401 156.751 398.61 156.865C398.825 156.975 399.087 157.029 399.396 157.029C399.784 157.029 400.126 156.947 400.422 156.783C400.718 156.619 400.953 156.419 401.126 156.182C401.304 155.945 401.399 155.715 401.413 155.491L401.953 156.1C401.921 156.291 401.835 156.503 401.693 156.735C401.552 156.968 401.363 157.191 401.126 157.405C400.894 157.615 400.616 157.79 400.292 157.932C399.973 158.068 399.613 158.137 399.212 158.137C398.711 158.137 398.271 158.039 397.893 157.843C397.519 157.647 397.227 157.385 397.018 157.057C396.812 156.724 396.71 156.353 396.71 155.942C396.71 155.546 396.787 155.197 396.942 154.896C397.097 154.591 397.321 154.338 397.612 154.138C397.904 153.933 398.255 153.778 398.665 153.673C399.075 153.568 399.533 153.516 400.039 153.516H401.509ZM409.562 153.81V154.835H405.651V153.81H409.562ZM405.918 150.604V158H404.653V150.604H405.918ZM410.587 150.604V158H409.315V150.604H410.587ZM417.642 153.81V154.835H413.731V153.81H417.642ZM413.998 150.604V158H412.733V150.604H413.998ZM418.667 150.604V158H417.396V150.604H418.667ZM421.743 153.146H423.965C424.562 153.146 425.065 153.251 425.476 153.461C425.886 153.666 426.196 153.951 426.405 154.315C426.619 154.675 426.727 155.086 426.727 155.546C426.727 155.888 426.667 156.209 426.549 156.51C426.43 156.806 426.253 157.066 426.016 157.289C425.783 157.512 425.494 157.688 425.147 157.815C424.806 157.938 424.411 158 423.965 158H420.82V150.604H422.085V156.961H423.965C424.329 156.961 424.621 156.895 424.84 156.763C425.059 156.631 425.216 156.46 425.312 156.25C425.407 156.04 425.455 155.822 425.455 155.594C425.455 155.37 425.407 155.152 425.312 154.938C425.216 154.723 425.059 154.546 424.84 154.404C424.621 154.258 424.329 154.186 423.965 154.186H421.743V153.146ZM429.358 150.604V158H428.094V150.604H429.358ZM432.428 150.604L434.048 153.297L435.688 150.604H437.172L434.752 154.254L437.247 158H435.784L434.075 155.225L432.366 158H430.896L433.385 154.254L430.972 150.604H432.428Z" fill="black"/>
</svg>
