<svg width="710" height="673" viewBox="0 0 710 673" fill="none" xmlns="http://www.w3.org/2000/svg">
<g opacity="0.2" filter="url(#filter0_b_1430_24705)">
<path fill-rule="evenodd" clip-rule="evenodd" d="M421.374 62.6993C512.098 67.837 618.161 -14.5809 683.096 46.4233C747.96 107.361 675.72 210.524 671.324 297.52C667.333 376.499 709.335 462.863 658.892 525.395C605.357 591.76 508.71 611.99 421.374 607.373C338.477 602.99 274.339 550.319 208.664 501.593C127.7 441.524 20.0425 394.461 3.73917 297.52C-13.8818 192.744 31.3772 68.5843 126.817 14.9219C216.128 -35.2945 318.035 56.8474 421.374 62.6993Z" fill="#2A88B9"/>
</g>
<path opacity="0.7" fill-rule="evenodd" clip-rule="evenodd" d="M367.554 26.4862C466.419 41.8168 477.91 163.909 528.118 241.385C558.591 288.406 584.894 331.859 599.604 384.559C622.139 465.292 695.005 559.265 634.531 622.62C574.555 685.454 459.958 632.042 367.554 627.665C283.729 623.694 194.926 643.203 127.51 598.604C51.8773 548.569 -2.31265 468.507 0.0759649 384.559C2.42556 301.982 76.8501 242.045 139.39 181.106C206.431 115.781 269.717 11.315 367.554 26.4862Z" fill="#2A88B9"/>
<path d="M425.149 261.413L439.647 245.709L454.779 255.324L436.754 275.007L425.149 261.413Z" fill="#FFC9A6"/>
<path d="M465.871 228.617C470.844 237.207 468.101 248.27 459.722 253.364C451.342 258.458 440.491 255.594 435.518 247.004C430.545 238.413 433.287 227.351 441.667 222.257C450.046 217.193 460.867 220.057 465.871 228.617Z" fill="#FFC9A6"/>
<path d="M474.642 202.604C476.119 204.081 476.149 206.492 474.732 207.999L442.571 241.909C441.154 243.416 438.773 243.446 437.296 241.969C435.819 240.522 435.789 238.081 437.206 236.574L469.367 202.664C470.784 201.157 473.165 201.127 474.642 202.604Z" fill="black"/>
<path d="M328.936 238.533L394.525 294.205L430.152 252.248L445.434 271.297L403.356 331.551C399.799 335.801 393.47 336.193 389.431 332.395L328.242 296.436L328.936 238.533Z" fill="#4F4D4B"/>
<path d="M406.25 498.237C406.25 498.237 300.03 575.431 257.318 622.934L244.357 610.878L280.317 567.594C280.317 567.594 296.653 529.434 331.377 516.865L379.544 458.54L406.25 498.237Z" fill="#F2C09E"/>
<path d="M244.388 602.405C245.804 601.621 247.402 602.314 247.552 603.821C247.854 606.745 249.18 611.176 253.882 614.672C258.765 618.32 262.865 617.204 265.216 615.908C266.452 615.215 267.898 615.577 268.351 616.782L283.06 655.243C283.964 657.564 283.813 660.307 282.698 662.809C281.643 665.16 278.659 666.004 277.001 664.407L231.216 620.279C229.407 618.531 229.648 615.426 231.728 613.467L241.946 603.821C242.127 603.671 242.308 603.52 242.519 603.399L244.388 602.405Z" fill="#1F252A"/>
<path d="M410.289 461.159C410.289 461.159 415.443 592.367 431.208 654.249L413.967 658.318L397.991 604.364C397.991 604.364 375.355 569.58 384.186 533.711L362.454 461.25L410.289 461.159Z" fill="#FCC9A7"/>
<path d="M406.973 651.176C407.094 649.578 408.571 648.614 409.897 649.337C412.489 650.724 416.92 652.08 422.436 650.091C428.193 648.041 429.55 644.032 429.761 641.349C429.881 639.933 430.966 638.938 432.232 639.24L472.381 648.373C474.823 648.915 477.023 650.543 478.47 652.864C479.857 655.034 478.892 657.988 476.631 658.5L414.509 672.034C412.067 672.577 409.626 670.647 409.144 667.814L406.823 653.979C406.793 653.738 406.762 653.527 406.793 653.286L406.973 651.176Z" fill="#1F252A"/>
<path d="M313.805 441.358L311.122 524.912L432.112 530.94C432.112 530.94 418.759 482.864 408.059 435.722L313.805 441.358Z" fill="#F7ECE7"/>
<path d="M335.296 222.557C331.769 222.135 328.212 220.236 325.59 218.487C322.998 216.769 321.641 213.695 322.003 210.59L329.116 154.044L353.863 157.028L346.87 212.881C346.086 219.271 340.962 223.22 335.296 222.557Z" fill="#FCC9A7"/>
<path d="M348.83 197.178L340.27 181.534C340.27 181.534 332.101 197.329 347.926 204.321L348.83 197.178Z" fill="#F2C09E"/>
<path d="M375.776 159.65C373.757 176.499 358.445 188.526 341.595 186.476C324.746 184.457 312.72 169.144 314.769 152.295C316.789 135.446 332.101 123.419 348.95 125.469C365.799 127.488 377.796 142.8 375.776 159.65Z" fill="#FCC9A7"/>
<path d="M351 197.598C343.012 196.633 337.285 189.369 338.25 181.352L340.781 160.463L375.776 159.619L373.305 180.086C371.979 191.087 362.001 198.924 351 197.598Z" fill="#FCC9A7"/>
<path d="M374.058 166.372L379.544 176.982C380.298 178.7 378.821 180.509 376.892 180.267L368.994 180.81L374.058 166.372Z" fill="#FCC9A7"/>
<path d="M344.579 169.567L351.301 169.024L353.893 157.028C353.893 157.028 381.443 161.911 385.573 148.86C385.573 148.86 369.658 104.973 331.136 122.093C302.562 134.783 310.76 166.191 320.164 177.856C323.299 181.744 324.776 186.778 324.354 191.751C324.294 192.354 324.234 192.987 324.143 193.65L335.386 168.09L344.579 169.567Z" fill="#DBBA0D"/>
<path d="M335.658 156.786C339.938 154.948 344.911 156.937 346.75 161.247C348.589 165.528 346.599 170.501 342.289 172.34C338.009 174.178 333.035 172.189 331.197 167.879C329.358 163.568 331.348 158.625 335.658 156.786Z" fill="#FCC9A7"/>
<path d="M326.374 131.347C326.374 131.347 319.502 94.7249 288.425 104.732C254.184 115.764 269.315 155.28 267.959 163.931C266.392 174.059 261.086 184.608 246.407 186.598C246.407 186.598 287.431 195.821 289.751 167.096C291.711 142.922 303.165 133.096 316.216 142.409L326.374 131.347Z" fill="#DBBA0D"/>
<path d="M322.033 210.589C322.033 210.589 314.95 207.846 311.363 246.307C307.776 284.768 305.395 463.751 305.395 463.751L417.071 444.731C417.071 444.731 396.815 284.678 346.81 212.849L322.033 210.589Z" fill="#383635"/>
<path d="M323.45 466.31C324.113 476.348 332.583 483.943 342.379 483.28C352.176 482.617 359.621 473.936 358.958 463.899C358.294 453.862 349.824 446.266 340.028 446.929C330.232 447.592 322.787 456.273 323.45 466.31Z" fill="#FCC9A7"/>
<path d="M333.18 455.613H351.476V421.221H333.18V455.613Z" fill="#FCC9A7"/>
<path d="M354.316 270.119V438.161H329.147L320.255 261.951C319.833 253.993 323.179 246.156 329.479 241.514C336.653 236.209 346.328 235.757 353.11 261.077C353.924 264 354.316 267.045 354.316 270.119Z" fill="#4F4D4B"/>
<path d="M354.316 438.161V427.491H328.605L329.177 438.161H354.316Z" fill="white"/>
<defs>
<filter id="filter0_b_1430_24705" x="-10000" y="-10000" width="20710" height="20608" filterUnits="userSpaceOnUse" color-interpolation-filters="sRGB">
<feFlood flood-opacity="0" result="BackgroundImageFix"/>
<feGaussianBlur in="BackgroundImageFix" stdDeviation="5000"/>
<feComposite in2="SourceAlpha" operator="in" result="effect1_backgroundBlur_1430_24705"/>
<feBlend mode="normal" in="SourceGraphic" in2="effect1_backgroundBlur_1430_24705" result="shape"/>
</filter>
</defs>
</svg>
